# xmcd
#
# Track frame offsets:
#	150
#	12252
#	27405
#	40139
#	54605
#	67702
#	78554
#	86279
#	99421
#	111984
#	122600
#	132272
#	143248
#	154570
#	165424
#	180091
#	192074
#	201253
#	213702
#	227178
#	239609
#	250316
#	260720
#	272816
#	284732
#
# Disc length: 3936
#
# Revision: 1
# Processed by: cddbd v1.5.1PL0 Copyright (c) Steve Scherf et al.
# Submitted via: EasyCDDAExtractor 4.6.0.1
# Normalized: r0:TDELIM( - )
#
DISCID=630f5e19
DTITLE=Various Artist - Forever DooWop  Vol 03
DYEAR=1900
DGENRE=Blues
TTITLE0=Del Vikings - When I Come Home
TTITLE1=Robins - How Would You Know
TTITLE2=Five (5) Bell Aires - House Of Love
TTITLE3=Ravens - Lilacs In The Rain
TTITLE4=Chantels - Maybe
TTITLE5=Midnighters - Switchie Witchie Twitchie
TTITLE6=Four Epics - Again
TTITLE7=Roomates (Cathy Jean and the) - Please Love Me Forever
TTITLE8=Mello-Moods - I'm Lost
TTITLE9=Fascinators - Oh Rosemarie
TTITLE10=Diamonds - Little Darlin'
TTITLE11=Jesters - Please Let Me Love You
TTITLE12=Untouchables - You're On Top
TTITLE13=Velours - Can I Come Over Tonight
TTITLE14=Dominoes - Stardust
TTITLE15=Skyliners - Since I Don't Have You
TTITLE16=Jackeals - A Lifetime From Today
TTITLE17=Moonglows - In My Diary
TTITLE18=Cadillacs - Gloria
TTITLE19=Charts - Deserie
TTITLE20=Corvairs - True True Love
TTITLE21=Heartbeats - Crazy For You
TTITLE22=Belmonts (Dion and the) - Where Or When
TTITLE23=Rob Roys (Norman Fox and the) - Dream Girl
TTITLE24=Vidaltones - Forever
EXTD=
EXTT0=
EXTT1=
EXTT2=
EXTT3=
EXTT4=
EXTT5=
EXTT6=
EXTT7=
EXTT8=
EXTT9=
EXTT10=
EXTT11=
EXTT12=
EXTT13=
EXTT14=
EXTT15=
EXTT16=
EXTT17=
EXTT18=
EXTT19=
EXTT20=
EXTT21=
EXTT22=
EXTT23=
EXTT24=
PLAYORDER=
